<svg width="80" height="80" viewBox="0 0 80 80" fill="none" xmlns="http://www.w3.org/2000/svg">
<path d="M30.3035 51.7904L35.1422 65.5001H37.9648L40.3841 58.242L42.8035 65.5001H45.2228M45.2228 65.5001L49.6583 53.0001M45.2228 65.5001C48.8519 65.5001 51.6349 63.7499 54.0939 62.2745C64.1745 56.2258 58.5293 46.1452 53.6906 46.1452C46.8358 46.1451 33.1261 45.742 26.2712 46.1453C19.4163 46.5485 19.8196 58.242 25.0615 61.4678M37.9648 46.5485L40.3841 51.7904L43.2067 46.5485M36.4729 16.0353C37.5803 15.6875 38.7587 15.5 39.9809 15.5C46.4391 15.5 51.6745 20.7354 51.6745 27.1936C51.6745 33.6517 46.4391 38.8871 39.9809 38.8871C33.5228 38.8871 28.2874 33.6517 28.2874 27.1936C28.2874 25.9713 28.4749 24.7929 28.8227 23.6855" stroke="#FF7539" stroke-width="2" stroke-linecap="round" stroke-linejoin="round"/>
</svg>
