<svg width="80" height="80" viewBox="0 0 80 80" fill="none" xmlns="http://www.w3.org/2000/svg">
<path d="M34.825 29.25H45.425M34.825 29.25V40M34.825 29.25V18.5H24.225V29.25M34.825 29.25H24.225M45.425 29.25V40M45.425 29.25H56.025M45.425 29.25V18.5H56.025V29.25M45.425 40H34.825M45.425 40H56.025M45.425 40V50.75M34.825 40H24.225M34.825 40V50.75M34.825 50.75H45.425M34.825 50.75V61.5H45.425V50.75M34.825 50.75H24.225V40M45.425 50.75H56.025V40M56.025 29.25H66.625V40H56.025M56.025 29.25V40M24.225 29.25H13.625V40H24.225M24.225 29.25V40" stroke="#FF7539" stroke-width="2" stroke-linecap="round" stroke-linejoin="round"/>
</svg>
