<svg width="80" height="80" viewBox="0 0 80 80" fill="none" xmlns="http://www.w3.org/2000/svg">
<path d="M49.4637 39.388C49.4637 45.5956 48.2839 51.1666 46.4201 55.1484C44.5188 59.2103 42.0909 61.276 39.7502 61.276C37.4094 61.276 34.9816 59.2103 33.0802 55.1484C31.2164 51.1666 30.0366 45.5956 30.0366 39.388C30.0366 33.1805 31.2164 27.6094 33.0802 23.6277C34.9816 19.5657 37.4094 17.5 39.7502 17.5C42.0909 17.5 44.5188 19.5657 46.4201 23.6277C48.2839 27.6094 49.4637 33.1805 49.4637 39.388Z" stroke="#FF7539" stroke-width="2"/>
<line x1="39.7764" y1="17.4746" x2="39.7764" y2="62.2767" stroke="#FF7539" stroke-width="2"/>
<circle cx="39.75" cy="39.875" r="22.375" stroke="#FF7539" stroke-width="2"/>
<path d="M57.7684 26.252C53.4809 29.8144 47.0011 32.0842 39.7502 32.0842C32.4992 32.0842 26.0194 29.8144 21.7319 26.252" stroke="#FF7539" stroke-width="2"/>
<path d="M21.7318 53.4989C26.0192 49.9365 32.4991 47.6667 39.75 47.6667C47.0009 47.6667 53.4808 49.9365 57.7682 53.4989M17.8359 39.875H39.9935H62.151" stroke="#FF7539" stroke-width="2"/>
</svg>
