<svg width="80" height="80" viewBox="0 0 80 80" fill="none" xmlns="http://www.w3.org/2000/svg">
<path d="M39.9998 25.334C41.7468 25.334 43.4361 26.0727 44.6919 27.4104C45.9497 28.7503 46.6665 30.5803 46.6665 32.5007C46.6665 34.421 45.9497 36.2511 44.6919 37.5909C43.4361 38.9286 41.7468 39.6673 39.9998 39.6673C38.2528 39.6673 36.5636 38.9286 35.3078 37.5909C34.0499 36.2511 33.3332 34.421 33.3332 32.5007C33.3332 30.5803 34.0499 28.7503 35.3078 27.4104C36.5636 26.0727 38.2528 25.334 39.9998 25.334ZM25.6665 52.9173C25.6665 51.2217 26.9795 49.4444 29.627 48.0319C32.2302 46.643 35.8955 45.7507 39.9998 45.7507C44.1042 45.7507 47.7695 46.643 50.3727 48.0319C53.0202 49.4444 54.3332 51.2217 54.3332 52.9173C54.3332 54.6202 52.9527 56.0007 51.2498 56.0007H28.7498C27.047 56.0007 25.6665 54.6202 25.6665 52.9173Z" stroke="#FF7539" stroke-width="2" stroke-linejoin="round"/>
<path fill-rule="evenodd" clip-rule="evenodd" d="M55.5561 31.0742C56.4667 31.0742 57.3609 31.4531 58.0361 32.162C58.7144 32.8743 59.1115 33.8602 59.1115 34.9074C59.1115 35.9547 58.7144 36.9406 58.0361 37.6528C57.3609 38.3617 56.4667 38.7407 55.5561 38.7407C54.6455 38.7407 53.7512 38.3617 53.0761 37.6528C52.3978 36.9406 52.0006 35.9547 52.0006 34.9074C52.0006 33.8602 52.3978 32.8743 53.0761 32.162C53.7512 31.4531 54.6455 31.0742 55.5561 31.0742ZM53.2702 50.4071H63.7504C64.2566 50.4071 64.667 49.9967 64.667 49.4905C64.667 49.0018 64.2487 48.0697 62.4826 47.1409C60.8123 46.2625 58.3667 45.6573 55.5561 45.6573C52.8806 45.6573 50.5359 46.2057 48.8758 47.0161L47.2229 45.7406C47.0117 45.8462 46.7603 45.9719 46.4917 46.1215C48.5047 44.6329 51.8136 43.6573 55.5561 43.6573C61.6948 43.6573 66.667 46.2822 66.667 49.4905C66.667 51.1013 65.3612 52.4071 63.7504 52.4071H54.7663C54.978 52.2606 55.1426 52.1023 55.25 51.9348L53.2702 50.4071ZM55.5561 29.0742C57.0295 29.0742 58.4425 29.6888 59.4844 30.7827C60.5262 31.8767 61.1115 33.3604 61.1115 34.9074C61.1115 36.4545 60.5262 37.9382 59.4844 39.0321C58.4425 40.1261 57.0295 40.7407 55.5561 40.7407C54.0827 40.7407 52.6696 40.1261 51.6278 39.0321C50.5859 37.9382 50.0006 36.4545 50.0006 34.9074C50.0006 33.3604 50.5859 31.8767 51.6278 30.7827C52.6696 29.6888 54.0827 29.0742 55.5561 29.0742Z" fill="#FF7539"/>
<path fill-rule="evenodd" clip-rule="evenodd" d="M24.4449 31.0742C23.5343 31.0742 22.64 31.4531 21.9649 32.162C21.2866 32.8743 20.8895 33.8602 20.8895 34.9074C20.8895 35.9547 21.2866 36.9406 21.9649 37.6528C22.64 38.3617 23.5343 38.7407 24.4449 38.7407C25.3555 38.7407 26.2498 38.3617 26.9249 37.6528C27.6032 36.9406 28.0003 35.9547 28.0003 34.9074C28.0003 33.8602 27.6032 32.8743 26.9249 32.162C26.2498 31.4531 25.3555 31.0742 24.4449 31.0742ZM26.7304 50.4071H16.2506C15.7444 50.4071 15.334 49.9967 15.334 49.4905C15.334 49.0018 15.7523 48.0697 17.5183 47.1409C19.1887 46.2625 21.6342 45.6573 24.4449 45.6573C27.1204 45.6573 29.465 46.2056 31.1251 47.0161L32.7781 45.7406C32.9893 45.8462 33.2407 45.9719 33.5093 46.1215C31.4963 44.6329 28.1874 43.6573 24.4449 43.6573C18.3061 43.6573 13.334 46.2822 13.334 49.4905C13.334 51.1013 14.6398 52.4071 16.2506 52.4071H25.2342C25.0225 52.2606 24.8579 52.1023 24.7505 51.9348L26.7304 50.4071ZM24.4449 29.0742C22.9715 29.0742 21.5585 29.6888 20.5166 30.7827C19.4748 31.8767 18.8895 33.3604 18.8895 34.9074C18.8895 36.4545 19.4748 37.9382 20.5166 39.0321C21.5585 40.1261 22.9715 40.7407 24.4449 40.7407C25.9183 40.7407 27.3313 40.1261 28.3732 39.0321C29.415 37.9382 30.0003 36.4545 30.0003 34.9074C30.0003 33.3604 29.415 31.8767 28.3732 30.7827C27.3313 29.6888 25.9183 29.0742 24.4449 29.0742Z" fill="#FF7539"/>
</svg>
